<svg xmlns="http://www.w3.org/2000/svg" aria-hidden="true">
<defs>
<symbol id="icon-adobe" viewBox="0 0 121 32">
<path fill="#939393" d="m17.99 23.52 2.539 7.279c.084.182.21.267.435.267h4.881c.266 0 .308-.126.266-.393L16.027 2.664c-.042-.224-.084-.267-.309-.267H9.659c-.168 0-.267.126-.267.309-.084 1.473-.21 1.921-.393 2.356L.009 30.63c-.042.309.056.435.309.435H4.68c.266 0 .393-.084.491-.351l2.398-7.195H17.99zm-9.032-4.754c1.318-3.983 3.058-9.088 3.759-12.006h.042c.87 3.058 2.917 9.117 3.843 12.006H8.958zM39.074 31.501c2.623 0 5.414-.477 8.247-1.697.224-.084.267-.182.267-.393-.084-.785-.182-1.921-.182-2.791V.252c0-.168 0-.252-.21-.252h-4.755c-.182 0-.267.084-.267.309v8.934c-.743-.084-1.262-.126-1.879-.126-7.672 0-12.384 5.063-12.384 11.389 0 7.335 4.839 10.996 11.164 10.996zm3.1-4.881c-.785.252-1.655.351-2.539.351-3.478 0-6.325-1.964-6.325-6.732 0-4.222 2.931-6.718 6.816-6.718.785 0 1.473.084 2.048.309v12.791zM62.757 9.117c-6.55 0-10.603 5.021-10.603 11.22 0 5.54 3.226 11.164 10.505 11.164 6.157 0 10.477-4.53 10.477-11.304 0-5.975-3.661-11.08-10.379-11.08zm-.266 4.404c3.703 0 5.274 3.184 5.274 6.816 0 4.488-2.314 6.718-5.007 6.718-3.324 0-5.288-2.791-5.288-6.816 0-4.138 2.09-6.718 5.021-6.718zM78.052 0c-.182 0-.309.084-.309.309v29.846c0 .126.126.351.309.393 2.09.645 4.278.954 6.536.954 6.466 0 12.749-4.011 12.749-12.09 0-5.849-4.011-10.295-10.295-10.295-1.445 0-2.791.224-3.969.617L83.016.351c0-.309-.084-.351-.392-.351h-4.573zm13.914 19.944c0 4.839-3.31 7.111-6.887 7.111-.743 0-1.402-.042-2.005-.224V14.096c.687-.266 1.515-.491 3.043-.491 3.45 0 5.849 2.188 5.849 6.339zM115.084 21.515c2.132 0 3.885-.042 4.488-.182.224-.042.308-.126.35-.308.126-.477.183-1.473.183-2.693 0-4.151-2.497-9.215-8.948-9.215-6.592 0-10.252 5.372-10.252 11.431 0 5.372 2.832 10.954 10.771 10.954 2.974 0 4.895-.477 6.55-1.262.168-.084.253-.224.253-.477V26.13c0-.21-.126-.252-.253-.168-1.655.701-3.45 1.052-5.414 1.052-4.446 0-6.466-2.454-6.592-5.498h8.864zm-8.865-3.759c.35-2.132 1.697-4.446 4.712-4.446 3.325 0 4.194 2.791 4.194 4.053v.351c-.182.042-.743.042-2.398.042h-6.507z"/>
</symbol>
<symbol id="icon-mail" viewBox="0 0 32 32">
<path fill="#a6a001" d="M29.187 4.75H2.812A2.817 2.817 0 0 0-.001 7.563v16.875a2.818 2.818 0 0 0 2.813 2.813h26.375A2.816 2.816 0 0 0 32 24.438V7.563a2.816 2.816 0 0 0-2.813-2.813zm-.393 1.875L17.989 17.373c-.531.531-1.238.824-1.989.824s-1.457-.293-1.991-.826L3.206 6.625h25.587zM1.875 24.056V7.946l8.102 8.06-8.102 8.051zm1.333 1.319 8.099-8.048 1.379 1.371c.885.885 2.063 1.373 3.315 1.373s2.429-.488 3.313-1.371l1.38-1.373 8.099 8.048H3.208zm26.917-1.319-8.102-8.051 8.102-8.06v16.11z" />
</symbol>
<symbol id="icon-phone" viewBox="0 0 32 32">
<path fill="#a6a001" d="M6.523 21.271c3.156 3.773 6.956 6.743 11.292 8.845 1.651.782 3.859 1.711 6.319 1.87.152.007.298.013.451.013 1.651 0 2.977-.57 4.058-1.744.007-.007.02-.02.026-.033.385-.464.822-.882 1.28-1.326.312-.299.63-.61.935-.928 1.412-1.472 1.412-3.342-.013-4.768l-3.985-3.985c-.676-.703-1.485-1.074-2.334-1.074s-1.664.371-2.361 1.068l-2.374 2.374a12.678 12.678 0 0 0-.656-.345 8.27 8.27 0 0 1-.729-.398c-2.162-1.373-4.124-3.163-6.001-5.464-.948-1.2-1.585-2.208-2.029-3.236a39.874 39.874 0 0 0 1.77-1.731c.199-.206.404-.411.61-.617.716-.716 1.101-1.545 1.101-2.387s-.378-1.671-1.101-2.387l-1.976-1.976c-.232-.232-.451-.458-.676-.69a36.704 36.704 0 0 0-1.346-1.333C8.101.349 7.299-.002 6.45-.002c-.842 0-1.651.351-2.361 1.028l-2.48 2.48A5.094 5.094 0 0 0 .091 6.768c-.126 1.585.166 3.269.922 5.305 1.16 3.15 2.911 6.074 5.51 9.197zM1.709 6.909a3.51 3.51 0 0 1 1.054-2.254L5.23 2.188c.385-.371.809-.564 1.22-.564.404 0 .816.192 1.194.577.444.411.862.842 1.313 1.3.225.232.457.464.69.703l1.976 1.976c.411.411.623.829.623 1.24s-.212.829-.623 1.24c-.206.206-.411.418-.617.623-.617.623-1.194 1.213-1.83 1.777l-.033.033c-.55.55-.464 1.074-.332 1.472l.02.053c.511 1.227 1.22 2.394 2.327 3.786 1.989 2.453 4.085 4.356 6.392 5.822.285.186.59.332.875.477.265.133.511.259.729.398.027.013.046.026.073.04.219.113.431.166.643.166.53 0 .875-.338.988-.451l2.48-2.48c.384-.385.802-.59 1.213-.59.504 0 .915.312 1.174.59l3.998 3.992c.796.796.789 1.658-.02 2.5-.278.298-.57.583-.882.882-.464.451-.948.915-1.386 1.439-.762.822-1.671 1.207-2.845 1.207-.113 0-.232-.007-.345-.013-2.175-.139-4.197-.988-5.716-1.711-4.124-1.996-7.745-4.827-10.748-8.421-2.473-2.977-4.138-5.749-5.238-8.719-.683-1.823-.942-3.289-.835-4.622z"/>
</symbol>
<symbol id="icon-quotations" viewBox="0 0 40 32">
<path d="M36.632 27.416c3.774-4.096 3.394-9.356 3.382-9.416V2a2.002 2.002 0 0 0-2-2h-12c-2.206 0-4 1.794-4 4v14a2 2 0 0 0 2 2h6.156a5.78 5.78 0 0 1-.858 2.792c-1.016 1.602-2.93 2.696-5.692 3.248l-1.606.32V32h2c5.566 0 9.812-1.542 12.618-4.584zm-22.014 0C18.394 23.32 18.012 18.06 18 18V2a2 2 0 0 0-2-2H4C1.794 0 0 1.794 0 4v14a2 2 0 0 0 2 2h6.156a5.78 5.78 0 0 1-.858 2.792c-1.016 1.602-2.93 2.696-5.692 3.248L0 26.36V32h2c5.566 0 9.812-1.542 12.618-4.584z"/>
</symbol>
<symbol id="icon-arrow" viewBox="0 0 32 32">
<path fill="#fff" d="M32 16c0 8.837-7.163 16-16 16S0 24.837 0 16 7.163 0 16 0s16 7.163 16 16z" opacity=".4" style="fill:var(--color3, #fff)"/>
<path fill="#fff" d="M20.615 11.385h-8.688l-.014 1.534h6.081l-6.611 6.611 1.086 1.086 6.611-6.611v6.081l1.534-.014v-8.688z" />
</symbol>
<symbol id="icon-graphic" viewBox="0 0 32 32">
<path fill="none" stroke="#fff" stroke-linecap="round" stroke-linejoin="round" stroke-miterlimit="10" stroke-width=".941" d="M25.655 17.71a1.71 1.71 0 1 0 0-3.42 1.71 1.71 0 0 0 0 3.42zM6.345 17.71a1.71 1.71 0 1 0 0-3.42 1.71 1.71 0 0 0 0 3.42zM3.923 12.157l2.18-2.18m.112 12.158-5.47-5.47a.94.94 0 0 1 0-1.33l1.566-1.566m19.893 11.946-5.54 5.54a.94.94 0 0 1-1.33 0l-5.541-5.541m18.818-6.406-2.827 2.827m-.091-12.361 5.561 5.561a.94.94 0 0 1 0 1.33l-1.171 1.171M9.718 6.362 15.334.746a.94.94 0 0 1 1.33 0l5.524 5.524m3.449 11.611v6.816a.94.94 0 0 1-.941.941H7.302a.94.94 0 0 1-.941-.941v-6.861m.001-3.635V7.303a.94.94 0 0 1 .941-.941h17.394a.94.94 0 0 1 .941.941v6.831" />
<path fill="none" stroke="#fff" stroke-linecap="round" stroke-linejoin="round" stroke-miterlimit="10" stroke-width=".941" d="M16 23.027V8.974m-.665 12.006-4.314-4.314a.94.94 0 0 1 0-1.33l4.314-4.314a.94.94 0 0 1 1.33 0l4.314 4.314a.94.94 0 0 1 0 1.33l-4.314 4.314a.94.94 0 0 1-1.33 0z" />
</symbol>
<symbol id="icon-social" viewBox="0 0 32 32">
<path fill="none" stroke="#a6a001" stroke-linecap="round" stroke-linejoin="round" stroke-miterlimit="10" stroke-width=".928" d="M14.434 6.851A8.424 8.424 0 0 0 12.447.706a.238.238 0 0 0-.35-.014l-1.712 1.712a.24.24 0 0 0-.017.317 5.554 5.554 0 0 1-7.803 7.804.237.237 0 0 0-.317.017L.536 12.254c-.023.023-.041.051-.054.082s-.018.063-.016.096a.24.24 0 0 0 .084.172 8.44 8.44 0 0 0 13.462-3.701m11.433 11.392a5.545 5.545 0 0 1 3.992 1.18.237.237 0 0 0 .318-.017l1.712-1.712c.023-.023.041-.051.054-.082s.018-.064.016-.096a.24.24 0 0 0-.084-.172 8.44 8.44 0 0 0-11.898 11.898.238.238 0 0 0 .35.014l1.712-1.712a.24.24 0 0 0 .017-.318 5.554 5.554 0 0 1 1.702-8.341M19.905.692l1.712 1.712a.24.24 0 0 1 .017.317 5.554 5.554 0 0 0 7.803 7.803.237.237 0 0 1 .318.017l1.712 1.712c.023.023.041.051.054.082s.018.063.016.096a.24.24 0 0 1-.084.172A8.44 8.44 0 0 1 19.555.705a.238.238 0 0 1 .35-.014zm-7.808 30.616-1.712-1.712a.24.24 0 0 1-.017-.318 5.554 5.554 0 0 0-7.803-7.803.237.237 0 0 1-.317-.017L.536 19.746c-.023-.023-.041-.051-.054-.082s-.018-.064-.016-.096a.24.24 0 0 1 .084-.172 8.44 8.44 0 0 1 11.898 11.898.238.238 0 0 1-.35.014zM16.001 18.753a2.753 2.753 0 1 0 0-5.506 2.753 2.753 0 0 0 0 5.506z" />
<path fill="none" stroke="#a6a001" stroke-linecap="round" stroke-linejoin="round" stroke-miterlimit="10" stroke-width=".928" d="M25.614 8.311a1.947 1.947 0 1 0 0-3.895 1.947 1.947 0 0 0 0 3.895zM25.614 27.582a1.947 1.947 0 1 0 0-3.895 1.947 1.947 0 0 0 0 3.895zM6.427 8.374a1.947 1.947 0 1 0 0-3.895 1.947 1.947 0 0 0 0 3.895zM6.387 27.582a1.947 1.947 0 1 0 0-3.895 1.947 1.947 0 0 0 0 3.895z" />
</symbol>
<symbol id="icon-uiux" viewBox="0 0 32 32">
<path fill="#fff" d="m24.987 26.227-4.548 4.548c-.186.186-.432.288-.695.288s-.509-.102-.695-.288c-.186-.186-.288-.432-.288-.695s.102-.509.288-.695l.328-.328c.84-.84.84-2.206 0-3.045s-2.206-.84-3.045 0l-.608.608c-.619.619-1.442.96-2.318.96s-1.698-.341-2.318-.96c-.619-.619-.96-1.442-.96-2.318s.341-1.698.96-2.317l1.397-1.397a.468.468 0 1 0-.662-.662l-1.397 1.397a4.22 4.22 0 0 0 0 5.961c.796.796 1.855 1.235 2.981 1.235s2.184-.438 2.98-1.235l.608-.608a1.217 1.217 0 0 1 1.719 1.719l-.328.328c-.363.363-.562.845-.562 1.358s.2.995.562 1.358c.363.363.845.562 1.358.562s.995-.2 1.358-.562l4.548-4.548a.468.468 0 1 0-.664-.662zM6.19 17.806.735 23.261a1.711 1.711 0 0 0 1.209 2.918c.438 0 .876-.167 1.209-.5l5.455-5.455c.667-.667.667-1.751 0-2.418s-1.751-.667-2.418 0zm1.755 1.755L2.49 25.016a.773.773 0 0 1-1.092-1.092l5.455-5.455a.768.768 0 0 1 1.092 0 .773.773 0 0 1 0 1.092z" />
<path fill="#fff" d="M31.761 6.723c0-2.341-1.905-4.246-4.246-4.246s-4.246 1.905-4.246 4.246c0 .554.108 1.102.319 1.614a4.2 4.2 0 0 0-.812.634l-1.853 1.853c-.49.49-1.287.49-1.777 0s-.49-1.287 0-1.777l1.853-1.853c.796-.796 1.235-1.855 1.235-2.981s-.438-2.184-1.235-2.98a4.22 4.22 0 0 0-5.961 0L7.741 8.53a4.22 4.22 0 0 0 0 5.961c1.84 1.84 4.697 1.508 6.242-.281a1.258 1.258 0 0 1 2.145.888c0 .335-.131.651-.368.888l-2.389 2.389a.468.468 0 1 0 .662.662l2.389-2.389c.414-.414.643-.965.643-1.551s-.228-1.137-.643-1.551a2.196 2.196 0 0 0-3.102 0c-1.308 1.56-3.576 1.624-4.916.281a3.28 3.28 0 0 1 0-4.635l7.297-7.297c.619-.619 1.442-.96 2.318-.96s1.698.341 2.317.96c.619.619.96 1.442.96 2.317s-.341 1.699-.96 2.318l-1.853 1.853c-.855.855-.855 2.247 0 3.103s2.247.855 3.103 0l1.853-1.853c.181-.181.383-.34.6-.475.969 1.435 3.008 2.206 4.773 1.607.146.378.221.78.221 1.186a3.26 3.26 0 0 1-.96 2.318l-6.699 6.7c-.407.407-.631.947-.631 1.523s.224 1.116.631 1.523c.407.407.947.631 1.523.631s1.116-.224 1.523-.631l1.372-1.372c.186-.186.432-.288.695-.288s.509.102.695.288a.983.983 0 0 1 0 1.389l-.643.643a.468.468 0 1 0 .662.662l.643-.643a1.921 1.921 0 0 0-2.716-2.715l-1.372 1.372c-.23.23-.535.356-.86.356s-.63-.126-.86-.356c-.23-.23-.356-.535-.356-.86s.126-.63.356-.86l6.699-6.699a4.189 4.189 0 0 0 1.235-2.98 4.205 4.205 0 0 0-.302-1.571 4.248 4.248 0 0 0 2.091-3.656zm-4.246 3.308a3.305 3.305 0 0 1-2.589-1.252c1.195-.316 2.609.1 3.409 1.149a3.293 3.293 0 0 1-.821.103zm1.71-.477c-.995-1.513-3.121-2.193-4.782-1.607a3.312 3.312 0 0 1 3.072-4.533 3.308 3.308 0 0 1 1.709 6.139zM3.9 6.291c1.052 0 1.907-.856 1.907-1.907S4.951 2.477 3.9 2.477s-1.907.856-1.907 1.907A1.91 1.91 0 0 0 3.9 6.291zm0-2.876a.97.97 0 0 1 0 1.94.97.97 0 0 1 0-1.94z" />
</symbol>
<symbol id="icon-microsoft" viewBox="0 0 161 32">
<path fill="#939393" d="m16.742 20.254-1.322 3.748h-.11a26.558 26.558 0 0 0-1.285-3.674L6.939 2.507H0V30.91h4.589V13.383c0-1.102 0-2.352-.037-3.895-.037-.772-.11-1.36-.147-1.8h.11c.22 1.102.477 1.911.661 2.425l8.518 20.724h3.231L25.369 9.93c.184-.478.367-1.433.551-2.241h.11c-.11 2.094-.184 3.968-.22 5.107v18.005h4.883V2.435h-6.682l-7.269 17.821zm18.577-9.81h4.773V30.8h-4.773V10.444zm2.423-8.598c-.808 0-1.469.294-2.019.808s-.844 1.176-.844 1.984c0 .772.294 1.433.844 1.947s1.212.772 2.019.772c.808 0 1.505-.294 2.019-.772.551-.514.844-1.176.844-1.947s-.294-1.433-.844-1.984c-.477-.514-1.175-.808-2.019-.808zm19.275 8.414a13.281 13.281 0 0 0-2.68-.294c-2.166 0-4.149.478-5.801 1.433s-2.974 2.278-3.818 3.932c-.881 1.69-1.322 3.638-1.322 5.879 0 1.947.441 3.674 1.285 5.254.844 1.543 2.019 2.793 3.598 3.638 1.505.845 3.268 1.286 5.25 1.286 2.276 0 4.222-.478 5.764-1.36l.037-.037v-4.409l-.184.147c-.697.514-1.505.955-2.313 1.213-.844.294-1.615.441-2.276.441-1.909 0-3.414-.551-4.479-1.764-1.101-1.176-1.652-2.793-1.652-4.813 0-2.094.551-3.748 1.689-4.96s2.643-1.837 4.479-1.837c1.542 0 3.121.514 4.553 1.543l.184.147v-4.666l-.037-.037c-.624-.257-1.322-.551-2.276-.735zm15.75-.147a5.032 5.032 0 0 0-3.231 1.139c-.808.661-1.358 1.617-1.836 2.756h-.037v-3.564H62.89V30.8h4.773V20.401c0-1.764.367-3.233 1.175-4.299.808-1.102 1.836-1.653 3.084-1.653.441 0 .881.11 1.432.184.514.147.881.294 1.138.478l.184.147v-4.777l-.11-.037c-.33-.221-.991-.331-1.799-.331zm12.997-.11c-3.341 0-6.021.992-7.894 2.94-1.909 1.947-2.827 4.63-2.827 8.01 0 3.16.955 5.732 2.79 7.606 1.836 1.837 4.332 2.793 7.453 2.793 3.268 0 5.874-.992 7.746-2.976 1.909-1.984 2.828-4.63 2.828-7.9 0-3.233-.882-5.806-2.681-7.68-1.725-1.874-4.259-2.793-7.416-2.793zm3.818 15.653c-.881 1.139-2.276 1.69-4.002 1.69s-3.121-.551-4.112-1.764c-.991-1.139-1.469-2.793-1.469-4.887 0-2.168.514-3.821 1.469-4.997.991-1.176 2.35-1.764 4.075-1.764 1.689 0 3.011.551 3.965 1.69s1.468 2.793 1.468 4.96c-.073 2.205-.477 3.932-1.395 5.071zm16.926-6.761c-1.506-.625-2.46-1.102-2.9-1.506-.367-.367-.551-.882-.551-1.543 0-.551.22-1.102.771-1.47s1.175-.551 2.093-.551c.807 0 1.652.147 2.46.367s1.542.551 2.13.992l.183.147v-4.483l-.11-.037a13.26 13.26 0 0 0-2.166-.625 14.697 14.697 0 0 0-2.349-.22c-2.276 0-4.148.551-5.617 1.764-1.469 1.139-2.166 2.682-2.166 4.483 0 .955.147 1.8.477 2.499s.807 1.36 1.468 1.911c.66.514 1.615 1.102 2.937 1.654 1.101.478 1.946.845 2.46 1.139s.844.625 1.101.882c.184.294.294.661.294 1.139 0 1.359-1.028 2.021-3.121 2.021-.808 0-1.652-.147-2.644-.478s-1.909-.808-2.68-1.36l-.183-.147v4.666l.109.037c.698.331 1.542.551 2.571.808 1.028.184 1.946.331 2.753.331 2.46 0 4.479-.551 5.911-1.764 1.468-1.176 2.24-2.682 2.24-4.63 0-1.359-.367-2.572-1.175-3.491-1.065-.882-2.387-1.8-4.295-2.535zm18.063-8.892c-3.341 0-6.021.992-7.893 2.94s-2.828 4.63-2.828 8.01c0 3.16.955 5.732 2.79 7.606 1.836 1.837 4.332 2.793 7.453 2.793 3.268 0 5.874-.992 7.747-2.976 1.909-1.984 2.827-4.63 2.827-7.9 0-3.233-.881-5.806-2.68-7.68-1.725-1.874-4.259-2.793-7.416-2.793zm3.781 15.653c-.881 1.139-2.276 1.69-4.002 1.69-1.763 0-3.121-.551-4.112-1.764-.991-1.139-1.468-2.793-1.468-4.887 0-2.168.514-3.821 1.468-4.997.991-1.176 2.349-1.764 4.076-1.764 1.652 0 3.01.551 3.964 1.69s1.468 2.793 1.468 4.96c0 2.205-.476 3.932-1.395 5.071zm31.831-11.281v-3.932h-4.81V4.417l-.147.037-4.663 1.396v4.593h-7.196V7.871c0-1.176.293-2.094.808-2.682s1.284-.882 2.239-.882c.661 0 1.358.147 2.13.478l.183.11V.743l-.11-.037c-.66-.22-1.541-.367-2.68-.367-1.432 0-2.68.331-3.818.882a6.368 6.368 0 0 0-2.607 2.609c-.624 1.102-.955 2.352-.955 3.785v2.829h-3.34v3.895h3.34V30.8h4.81V14.375h7.196v10.472c0 4.299 2.02 6.467 6.058 6.467.661 0 1.359-.11 2.02-.22.698-.147 1.212-.331 1.506-.478l.036-.037v-3.932l-.184.147c-.293.184-.55.331-.991.441-.367.11-.698.147-.955.147-.955 0-1.615-.22-2.092-.772-.441-.514-.661-1.359-.661-2.609v-9.627h4.884z" />
</symbol>
<symbol id="icon-samsung" viewBox="0 0 201 32">
<path fill="#939393" d="M7.62 8.828a3.55 3.55 0 0 1-.037-1.512c.184-.922.81-1.917 2.614-1.917 1.693 0 2.65 1.032 2.65 2.618v1.77h7.142V7.759c.037-6.268-5.596-7.264-9.645-7.264-5.08 0-9.24 1.696-10.013 6.379C.11 8.165.073 9.308.405 10.746c1.252 5.863 11.449 7.559 12.921 11.283.294.701.184 1.586.074 2.139-.221.959-.883 1.954-2.798 1.954-1.804 0-2.871-1.032-2.871-2.618v-2.765H0v2.212c0 6.416 5.043 8.333 10.418 8.333 5.191 0 9.424-1.77 10.123-6.563.331-2.47.074-4.093-.037-4.683C19.326 13.954 8.43 12.184 7.62 8.829zm93.246.037c-.11-.553-.073-1.18-.037-1.475.221-.922.81-1.917 2.614-1.917 1.656 0 2.614 1.032 2.614 2.581v1.77h7.068V7.833c0-6.195-5.522-7.153-9.534-7.153-5.043 0-9.166 1.659-9.939 6.305-.184 1.254-.258 2.397.074 3.835 1.214 5.789 11.301 7.485 12.774 11.172.258.701.184 1.585.036 2.102-.221.959-.846 1.917-2.76 1.917-1.768 0-2.872-1.032-2.872-2.581v-2.765h-7.62v2.175c0 6.342 4.969 8.259 10.307 8.259 5.117 0 9.351-1.77 10.013-6.49.332-2.47.074-4.056-.036-4.646-1.141-5.973-11.891-7.743-12.701-11.099zm65.084 15.671-6.737-23.119h-10.639v28.429h7.032l-.405-23.856 7.252 23.856h10.197V1.417h-7.068l.368 23.119zM30.701 1.417l-5.338 28.724h7.731l4.013-26.585 3.902 26.585h7.694L43.439 1.417H30.702zm43.292 0-3.608 22.455-3.608-22.455H55.071l-.626 28.724h7.178l.184-26.585 4.933 26.585h7.252l4.933-26.585.184 26.585h7.178l-.626-28.724H73.992zm66.63 0h-7.252v21.238c0 .369 0 .774-.073 1.106-.147.701-.737 2.102-2.761 2.102-1.987 0-2.577-1.364-2.724-2.102-.073-.295-.073-.737-.073-1.106V1.417h-7.252v20.575c0 .516.037 1.622.074 1.88.515 5.347 4.712 7.116 9.976 7.116s9.498-1.733 10.013-7.116c.036-.295.11-1.364.073-1.88V1.417zm49.77 12.573v4.203h2.945v4.167c0 .369 0 .774-.073 1.106-.11.774-.846 2.102-2.945 2.102-2.061 0-2.798-1.327-2.909-2.102a10.677 10.677 0 0 1-.073-1.106V9.233c0-.479.037-.959.147-1.364.147-.701.773-2.065 2.835-2.065 2.209 0 2.724 1.438 2.872 2.065.073.406.073 1.106.073 1.106v1.586h7.215v-.959s.037-.996-.037-1.917c-.552-5.346-5.006-7.043-10.087-7.043s-9.423 1.733-10.05 7.08a15.711 15.711 0 0 0-.147 1.917v12.057c0 .516 0 .922.11 1.88.478 5.236 5.006 7.079 10.086 7.079 5.117 0 9.608-1.844 10.087-7.079.074-.959.11-1.364.11-1.88V13.99h-10.16z" />
</symbol>
<symbol id="icon-ibm" viewBox="0 0 80 32">
<path fill="#939393" d="M15.391 29.371H0v2.202h15.391v-2.202zM15.391 25.19H0v2.202h15.391V25.19zM11.011 20.983H4.404v2.202h6.607v-2.202zM11.011 16.776H4.404v2.202h6.607v-2.202zM11.011 12.595H4.404v2.202h6.607v-2.202zM11.011 8.388H4.404v2.202h6.607V8.388zM15.391 4.182H0v2.202h15.391V4.182zM15.391 0H0v2.202h15.391V0zM17.59 27.392h23.482a8.941 8.941 0 0 0 .891-2.202H17.615v2.202h-.025zM39.222 16.776H22v2.202h19.078a9.24 9.24 0 0 0-1.856-2.202zM22 12.595v2.202h17.222a7.853 7.853 0 0 0 1.831-2.202H22zM41.073 4.182H17.616v2.202h24.348a8.941 8.941 0 0 0-.891-2.202zM33.797 0H17.59v2.202h21.874A8.36 8.36 0 0 0 33.798 0zM28.607 8.388H22v2.202h6.607V8.388zM34.788 10.59h7.102a8.29 8.29 0 0 0 .297-2.202h-7.399v2.202zM28.607 20.983H22v2.202h6.607v-2.202zM34.788 20.983v2.202h7.399c0-.742-.099-1.485-.297-2.202h-7.102zM17.59 31.573l16.207.025a8.387 8.387 0 0 0 5.666-2.202H17.589v2.177zM61.588 31.574l.767-2.202h-1.534l.767 2.202zM60.125 27.392h2.92l.767-2.202h-4.479l.792 2.202zM58.645 23.185h5.889l.767-2.202h-7.423l.767 2.202zM57.158 18.979h8.834l.792-2.202H56.391l.767 2.202zM48.397 10.59h11.877l-.767-2.202h-11.11v2.202zM64.359 6.384h14.822V4.182H65.126l-.767 2.202zM66.588 0l-.767 2.202h13.362V0H66.588zM54.98 29.371H43.994v2.202H54.98v-2.202zM54.98 25.189H43.994v2.202H54.98v-2.202zM55.004 20.983h-6.607v2.202h6.607v-2.202zM55.004 16.776h-6.607v2.202h6.607v-2.202zM74.781 8.388h-11.11l-.767 2.202h11.877V8.388zM68.193 14.797h6.582v-2.202h-12.57l-.619 1.782-.619-1.782h-12.57v2.202h6.582v-2.029l.718 2.029h11.778l.718-2.029v2.029zM74.799 16.776h-6.607v2.202h6.607v-2.202zM74.799 20.983h-6.607v2.202h6.607v-2.202zM79.179 25.189H68.193v2.202h10.986v-2.202zM79.179 29.371H68.193v2.202h10.986v-2.202zM58.815 6.384l-.767-2.202H43.993v2.202h14.822zM57.355 2.202 56.588 0H43.993v2.202h13.362z" />
</symbol>
<symbol id="icon-arrow-down" viewBox="0 0 11 7">
<path d="M10 1L5.5 6L1 1" stroke="white"/>
</symbol>
</defs>
</svg>